<?xml version="1.0" encoding="utf-8"?>
<!-- Generator: Adobe Illustrator 26.2.1, SVG Export Plug-In . SVG Version: 6.00 Build 0)  -->
<svg version="1.1" id="レイヤー_1" xmlns="http://www.w3.org/2000/svg" xmlns:xlink="http://www.w3.org/1999/xlink" x="0px"
	 y="0px" viewBox="0 0 200 59.84" style="enable-background:new 0 0 200 59.84;" xml:space="preserve">
<style type="text/css">
	.st0{display:none;}
	.st1{display:inline;}
	.st2{font-family:'Renner-it-Book';}
	.st3{font-size:54.9531px;}
	.st4{font-family:'Renner-it-Medium';}
	.st5{font-size:41.2148px;}
	.st6{}
</style>
<g class="st0">
	<text transform="matrix(1 0 0 1 75.3135 48.1783)" class="st1 st2 st3">B</text>
	<text transform="matrix(1 0 0 1 103.2295 48.1793)" class="st1 st4 st5">ridge</text>
	<text transform="matrix(1 0 0 1 0 48.1783)" class="st1 st4 st5">koto</text>
</g>
<path class="st6" d="M141.2,18.91c0,0-15.44-16.35-55.02-16.13C46.6,3,35.06,18.91,35.06,18.91l1.51,0.82
	c0,0,12.38-15.93,49.47-15.93s54.2,15.93,54.2,15.93L141.2,18.91z"/>
<g>
	<g>
		<path class="st6" d="M89.6,9.72c3.55,0,6.35,0.81,8.38,2.42c2.03,1.61,3.05,4.01,3.05,7.2c0,1.94-0.56,3.59-1.68,4.94
			c-1.12,1.36-2.68,2.33-4.7,2.91c2.67,0.55,4.77,1.64,6.29,3.27c1.52,1.63,2.28,3.78,2.28,6.46c0,3.66-1.21,6.46-3.63,8.38
			c-2.42,1.92-5.57,2.88-9.45,2.88H79.71V9.72H89.6z M84.38,25.27h5.22c1.98,0,3.6-0.5,4.86-1.51c1.26-1.01,1.9-2.39,1.9-4.15
			c0-1.76-0.63-3.16-1.9-4.2s-2.88-1.57-4.86-1.57h-5.22V25.27z M84.38,44.06h5.77c2.53,0,4.56-0.66,6.1-1.98
			c1.54-1.32,2.31-3.13,2.31-5.44s-0.77-4.1-2.31-5.38c-1.54-1.28-3.57-1.92-6.1-1.92h-5.77V44.06z"/>
	</g>
	<g>
		<path class="st6" d="M113.62,32.97c-2.09,0-3.13,1.51-3.13,4.53v10.67h-4.41V29.22h4.41v2.31c1.18-1.81,2.62-2.72,4.33-2.72
			c1.51,0,2.68,0.47,3.5,1.4L116.13,34C115.28,33.32,114.44,32.97,113.62,32.97z"/>
		<path class="st6" d="M121.96,19.74c0.54-0.52,1.2-0.78,2-0.78s1.47,0.26,2.02,0.78c0.55,0.52,0.82,1.17,0.82,1.94
			c0,0.77-0.27,1.42-0.82,1.94s-1.22,0.78-2.02,0.78s-1.46-0.26-2-0.78c-0.54-0.52-0.8-1.17-0.8-1.94
			C121.16,20.91,121.43,20.26,121.96,19.74z M126.14,29.22v18.96h-4.37V29.22H126.14z"/>
		<path class="st6" d="M133.52,31.49c1.79-1.79,3.97-2.68,6.55-2.68c2.8,0,4.96,1.18,6.47,3.54V16.03h4.49v32.15h-4.49v-3.13
			c-1.51,2.36-3.67,3.54-6.47,3.54c-2.58,0-4.77-0.89-6.55-2.68s-2.68-4.19-2.68-7.21S131.74,33.27,133.52,31.49z M137.11,43.09
			c1.1,1.08,2.45,1.63,4.04,1.63c1.4,0,2.65-0.55,3.75-1.65c1.1-1.1,1.65-2.56,1.65-4.37s-0.55-3.27-1.65-4.37
			c-1.1-1.1-2.35-1.65-3.75-1.65c-1.59,0-2.94,0.54-4.04,1.63c-1.1,1.08-1.65,2.55-1.65,4.39S136.01,42,137.11,43.09z"/>
		<path class="st6" d="M157.76,31.45c1.79-1.76,3.97-2.64,6.55-2.64c2.83,0,4.99,1.17,6.47,3.5v-3.09h4.37v18.55
			c0,3.24-0.94,5.73-2.82,7.46c-1.88,1.73-4.21,2.6-6.99,2.6c-3.02,0-5.41-0.76-7.15-2.29c-1.74-1.52-2.66-3.55-2.74-6.08h4.41
			c0.06,1.29,0.57,2.36,1.55,3.21s2.25,1.28,3.81,1.28c1.54,0,2.85-0.53,3.94-1.59c1.09-1.06,1.63-2.59,1.63-4.6v-2.84
			c-1.48,2.31-3.64,3.46-6.47,3.46c-2.58,0-4.77-0.87-6.55-2.62c-1.79-1.74-2.68-4.13-2.68-7.15S155.97,33.21,157.76,31.45z
			 M161.32,42.95c1.08,1.04,2.44,1.57,4.06,1.57c1.4,0,2.65-0.53,3.75-1.59c1.1-1.06,1.65-2.49,1.65-4.31s-0.55-3.26-1.65-4.33
			c-1.1-1.07-2.35-1.61-3.75-1.61c-1.62,0-2.97,0.53-4.06,1.59c-1.09,1.06-1.63,2.51-1.63,4.35S160.24,41.9,161.32,42.95z"/>
		<path class="st6" d="M185.45,43.6c0.93,0.88,2.16,1.32,3.67,1.32c2.42,0,4.23-1,5.44-3.01l3.88,1.57
			c-1.04,1.68-2.29,2.95-3.73,3.81c-1.44,0.87-3.37,1.3-5.79,1.3c-2.89,0-5.22-0.93-7.01-2.78s-2.68-4.22-2.68-7.11
			c0-0.77,0.05-1.44,0.17-2.02c0.41-2.39,1.47-4.3,3.17-5.73c1.7-1.43,3.89-2.14,6.55-2.14c2.91,0,5.22,0.87,6.92,2.6
			c1.7,1.73,2.55,4.09,2.55,7.09c0,0.22-0.03,0.63-0.08,1.24H183.8C183.97,41.43,184.52,42.73,185.45,43.6z M192.33,33.36
			c-0.8-0.78-1.88-1.17-3.26-1.17c-1.37,0-2.53,0.4-3.48,1.2c-0.95,0.8-1.52,1.88-1.71,3.26h9.89
			C193.61,35.24,193.13,34.15,192.33,33.36z"/>
	</g>
	<g>
		<path class="st6" d="M19.45,29.22l-8.16,7.83l8.98,11.13h-5.4l-7.83-9.64v9.64H2.68V16.03h4.37V35.9l6.97-6.68H19.45z"/>
		<path class="st6" d="M24.71,31.57c1.94-1.84,4.38-2.76,7.32-2.76s5.38,0.92,7.32,2.76c1.94,1.84,2.91,4.22,2.91,7.13
			c0,2.91-0.97,5.29-2.91,7.13s-4.38,2.76-7.32,2.76s-5.38-0.92-7.32-2.76c-1.94-1.84-2.91-4.22-2.91-7.13
			C21.8,35.79,22.77,33.41,24.71,31.57z M27.98,43.01c1.07,1.11,2.42,1.67,4.04,1.67s2.97-0.56,4.04-1.67
			c1.07-1.11,1.61-2.55,1.61-4.31c0-1.76-0.54-3.19-1.61-4.31c-1.07-1.11-2.42-1.67-4.04-1.67s-2.97,0.56-4.04,1.67
			c-1.07,1.11-1.61,2.55-1.61,4.31C26.38,40.46,26.91,41.89,27.98,43.01z"/>
		<path class="st6" d="M51.39,22.63v6.6h3.17v3.92h-3.17v15.04h-4.41V33.14h-3.17v-3.92h3.17v-6.6H51.39z"/>
		<path class="st6" d="M59.08,31.57c1.94-1.84,4.38-2.76,7.32-2.76s5.38,0.92,7.32,2.76c1.94,1.84,2.91,4.22,2.91,7.13
			c0,2.91-0.97,5.29-2.91,7.13s-4.38,2.76-7.32,2.76s-5.38-0.92-7.32-2.76c-1.94-1.84-2.91-4.22-2.91-7.13
			C56.18,35.79,57.14,33.41,59.08,31.57z M62.36,43.01c1.07,1.11,2.42,1.67,4.04,1.67s2.97-0.56,4.04-1.67
			c1.07-1.11,1.61-2.55,1.61-4.31c0-1.76-0.54-3.19-1.61-4.31c-1.07-1.11-2.42-1.67-4.04-1.67s-2.97,0.56-4.04,1.67
			c-1.07,1.11-1.61,2.55-1.61,4.31C60.75,40.46,61.29,41.89,62.36,43.01z"/>
	</g>
</g>
</svg>
