<?xml version="1.0" encoding="UTF-8"?><svg xmlns="http://www.w3.org/2000/svg" viewBox="0 0 230 65"><defs><style>.c{fill:#152e71;}.d{stroke-width:2px;}.d,.e{fill:none;stroke:#152e71;stroke-miterlimit:10;}.e{stroke-width:8px;}</style></defs><g id="a"/><g id="b"><path class="c" d="M230,47.41c-.58-.06-59.15-5.83-115-5.83S.58,47.35,0,47.41v-7.96c.58-.06,58.73-5.87,115-5.87s114.42,5.81,115,5.87v7.96Z"/><line class="e" x1="42.73" x2="42.73" y2="65"/><line class="e" x1="192.47" x2="192.47" y2="65"/><polygon class="c" points="21.92 65 21.92 43.43 10.16 43.43 0 65 21.92 65"/><polygon class="c" points="208.08 65 208.08 43.43 219.84 43.43 230 65 208.08 65"/><path class="d" d="M42.73,2.1s11.09,26.88,74.87,26.88S192.47,2.1,192.47,2.1"/><polygon class="c" points="21.92 65 21.92 43.43 10.16 43.43 0 65 21.92 65"/><line class="d" x1="42.73" y1="2.1" x2="21.92" y2="43.43"/><line class="d" x1="192.47" y1="2.1" x2="208.08" y2="43.43"/></g></svg>