<svg width="233" height="65" viewBox="0 0 233 65" fill="none" xmlns="http://www.w3.org/2000/svg">
<path d="M0 60H15M233 60H222M222 60H188M222 60C215.979 51.7208 204.302 39.7026 188 29.011M15 60H49M15 60C19.2439 49.8516 30.2493 34.0857 49 22.0309M49 60V22.0309M49 60H78.5M49 22.0309C57.2908 16.7008 67.0957 12.0963 78.5 9.02373M78.5 60V9.02373M78.5 60H106M78.5 9.02373C86.8071 6.7856 95.9628 5.36032 106 5.05959M106 60V5.05959M106 60H132.5M106 5.05959C107.318 5.0201 108.651 5 110 5C117.814 5 125.323 5.67472 132.5 6.88687M132.5 60V6.88687M132.5 60H158.5M132.5 6.88687C141.737 8.44687 150.423 10.897 158.5 13.9446M158.5 60V13.9446M158.5 60H188M158.5 13.9446C169.519 18.1024 179.403 23.3722 188 29.011M188 60V29.011" stroke="#152E71" stroke-width="10"/>
</svg>
