<?xml version="1.0" encoding="UTF-8"?><svg xmlns="http://www.w3.org/2000/svg" viewBox="0 0 230 65"><defs><style>.e{stroke-width:3px;}.e,.f,.g{fill:none;stroke:#152e71;stroke-miterlimit:10;}.f{stroke-width:6px;}.h{fill:#152e71;}</style></defs><g id="a"/><g id="b"/><g id="c"/><g id="d"><line class="f" y1="50.23" x2="230" y2="50.23"/><g><line class="e" x1="115" y1="47.41" x2="115" y2="37.51"/><polygon class="h" points="79.22 47.41 79.22 37.51 88.25 37.51 88.25 52.75 94.71 52.75 94.71 65 79.22 65 79.22 47.41"/></g><polygon class="h" points="150.78 47.41 150.78 37.51 141.75 37.51 141.75 52.75 135.29 52.75 135.29 65 150.78 65 150.78 47.41"/><path class="h" d="M78.16,48.47c-.16-.16-16.26-15.98-38.55-15.98S.16,49.07,0,49.23v-3.44c.69-.69,16.05-16.29,39.61-16.29s39.98,16.17,40.67,16.86l-2.12,2.12Z"/><path class="h" d="M151.84,48.47c.16-.16,16.26-15.98,38.55-15.98s39.45,16.58,39.61,16.74v-3.44c-.69-.69-16.05-16.29-39.61-16.29-23.56,0-39.98,16.17-40.67,16.86l2.12,2.12Z"/><line class="g" x1="12.06" y1="39.34" x2="12.06" y2="49.23"/><line class="g" x1="17.37" y1="36.36" x2="17.37" y2="49.23"/><line class="g" x1="23.12" y1="34.6" x2="23.12" y2="49.23"/><line class="g" x1="28.3" y1="32.5" x2="28.3" y2="50.23"/><line class="g" x1="34.19" y1="31.18" x2="34.19" y2="49.23"/><line class="g" x1="38.93" y1="31.18" x2="38.93" y2="50.23"/><line class="g" x1="44.82" y1="31.18" x2="44.82" y2="49.23"/><path class="g" d="M50.28,33.1c-.07,.57,0,16.12,0,16.12"/><line class="g" x1="55.74" y1="34.6" x2="55.74" y2="49.23"/><line class="g" x1="61.2" y1="36.36" x2="61.2" y2="50.23"/><line class="g" x1="65.94" y1="38.65" x2="65.94" y2="50.23"/><line class="g" x1="71.69" y1="41.91" x2="71.69" y2="50.23"/><line class="g" x1="7.75" y1="39.84" x2="7.75" y2="49.73"/><line class="g" x1="217.52" y1="39.34" x2="217.52" y2="49.23"/><line class="g" x1="212.2" y1="36.36" x2="212.2" y2="49.23"/><line class="g" x1="206.46" y1="34.6" x2="206.46" y2="49.23"/><line class="g" x1="201.28" y1="32.5" x2="201.28" y2="50.23"/><line class="g" x1="195.39" y1="31.18" x2="195.39" y2="49.23"/><line class="g" x1="190.65" y1="31.18" x2="190.65" y2="50.23"/><line class="g" x1="184.76" y1="31.18" x2="184.76" y2="49.23"/><path class="g" d="M179.3,33.1c.07,.57,0,16.12,0,16.12"/><line class="g" x1="173.84" y1="34.6" x2="173.84" y2="49.23"/><line class="g" x1="168.38" y1="36.36" x2="168.38" y2="50.23"/><line class="g" x1="163.64" y1="38.65" x2="163.64" y2="50.23"/><line class="g" x1="157.89" y1="41.91" x2="157.89" y2="50.23"/><line class="g" x1="221.83" y1="39.84" x2="221.83" y2="49.73"/></g></svg>