<?xml version="1.0" encoding="UTF-8"?><svg xmlns="http://www.w3.org/2000/svg" viewBox="0 0 230 65"><defs><style>.d{fill:none;stroke:#152e71;stroke-miterlimit:10;stroke-width:3px;}.e{fill:#152e71;}</style></defs><g id="a"/><g id="b"/><g id="c"><line class="d" x1="70.91" y1="41.91" x2="70.91" y2="27.29"/><path class="e" d="M230,50.23c-.58-.05-59.15-4.59-115-4.59S.58,50.19,0,50.23v-6.27c.58-.05,58.73-4.63,115-4.63s114.42,4.58,115,4.63v6.27Z"/><path class="e" d="M213.94,59.7c-4.52-3.81-15.59-12.73-30.24-21.75-25.62-15.79-48.73-23.79-68.7-23.79s-42.84,8.01-67.93,23.8c-14.39,9.06-25.18,18.01-29.55,21.8L0,44.89v6.77l14.23,13.34h6.41c7.81-6.83,53.14-44.85,94.36-44.85s87.76,37.93,95.91,44.85h6.25l12.84-13.77v-6.63l-16.06,15.1Z"/><line class="d" x1="115" y1="16.39" x2="115" y2="41.91"/><line class="d" x1="126.93" y1="41.91" x2="126.93" y2="18.38"/><line class="d" x1="137.47" y1="41.91" x2="137.47" y2="19.75"/><line class="d" x1="148.19" y1="41.91" x2="148.19" y2="24.29"/><line class="d" x1="159.09" y1="41.91" x2="159.09" y2="27.29"/><line class="d" x1="170" y1="41.91" x2="170" y2="33.1"/><line class="d" x1="103.07" y1="41.91" x2="103.07" y2="18.38"/><line class="d" x1="92.53" y1="41.91" x2="92.53" y2="19.75"/><line class="d" x1="81.81" y1="41.91" x2="81.81" y2="24.29"/><line class="d" x1="60" y1="41.91" x2="60" y2="33.1"/></g></svg>